<?xml version="1.0" encoding="iso-8859-1"?>
<!-- Generator: Adobe Illustrator 19.0.0, SVG Export Plug-In . SVG Version: 6.00 Build 0)  -->
<svg version="1.1" id="Layer_1" xmlns="http://www.w3.org/2000/svg" xmlns:xlink="http://www.w3.org/1999/xlink" x="0px" y="0px"
	 viewBox="0 0 512.001 512.001" style="enable-background:new 0 0 512.001 512.001;" xml:space="preserve">
<path style="fill:#A7CF38;" d="M169.155,190.57c0.362-8.317-2.537-16.277-8.162-22.413c-11.613-12.666-31.364-13.526-44.034-1.914
	l-54.627,50.076v-71.623c0-17.184-13.981-31.165-31.165-31.165S0.001,127.51,0.001,144.695v222.609
	c0,17.184,13.981,31.165,31.165,31.165s31.165-13.981,31.165-31.165v-66.43l3.027-2.775l45.22,83.979
	c5.445,10.112,15.967,16.394,27.46,16.394c5.122,0,10.224-1.29,14.757-3.73c15.13-8.146,20.809-27.085,12.664-42.216l-52.703-97.877
	l46.32-42.46C165.215,206.564,168.793,198.888,169.155,190.57z"/>
<path style="fill:#8BB531;" d="M18.922,367.303V144.695c0-13.887,9.131-25.678,21.704-29.693c-2.985-0.953-6.163-1.473-9.461-1.473
	C13.981,113.529,0,127.51,0,144.695v222.609c0,17.184,13.981,31.165,31.165,31.165c3.298,0,6.475-0.519,9.461-1.473
	C28.054,392.981,18.922,381.191,18.922,367.303z"/>
<path style="fill:#A7CF38;" d="M437.041,352.528l-52.703-97.877l46.32-42.46c6.137-5.625,9.716-13.303,10.077-21.62
	c0.362-8.317-2.537-16.277-8.162-22.413c-11.613-12.666-31.364-13.526-44.034-1.914l-54.626,50.075v-71.623
	c0-17.184-13.981-31.165-31.165-31.165s-31.165,13.981-31.165,31.165v222.609c0,17.184,13.981,31.165,31.165,31.165
	s31.165-13.981,31.165-31.165v-66.43l3.027-2.775l45.22,83.979c5.445,10.112,15.967,16.394,27.46,16.394
	c5.122,0,10.224-1.29,14.757-3.73C439.506,386.597,445.187,367.658,437.041,352.528
	C437.041,352.529,437.041,352.529,437.041,352.528z"/>
<path style="fill:#8BB531;" d="M289.391,367.303V144.695c0-14.091,9.403-26.021,22.261-29.863c-2.823-0.844-5.81-1.302-8.904-1.302
	c-17.184,0-31.165,13.981-31.165,31.165v222.609c0,17.184,13.981,31.165,31.165,31.165c3.094,0,6.081-0.46,8.904-1.302
	C298.794,393.324,289.391,381.394,289.391,367.303z"/>
<path style="fill:#A7CF38;" d="M213.705,220.382c-17.184,0-31.165,13.981-31.165,31.165v115.757
	c0,17.184,13.981,31.165,31.165,31.165s31.165-13.981,31.165-31.165V251.547C244.871,234.362,230.89,220.382,213.705,220.382z"/>
<path style="fill:#8BB531;" d="M200.349,367.303V251.547c0-14.091,9.403-26.021,22.261-29.862c-2.824-0.844-5.81-1.303-8.904-1.303
	c-17.184,0-31.165,13.981-31.165,31.165v115.757c0,17.184,13.981,31.165,31.165,31.165c3.094,0,6.081-0.46,8.904-1.303
	C209.752,393.324,200.349,381.394,200.349,367.303z"/>
<circle style="fill:#3CAFE6;" cx="476.384" cy="251.549" r="35.617"/>
<path style="fill:#1C9AD6;" d="M485.288,278.26c-19.671,0-35.617-15.947-35.617-35.617c0-7.561,2.363-14.566,6.38-20.333
	c-9.235,6.436-15.284,17.128-15.284,29.237c0,19.671,15.947,35.617,35.617,35.617c12.11,0,22.802-6.049,29.237-15.284
	C499.854,275.897,492.849,278.26,485.288,278.26z"/>
<g>
</g>
<g>
</g>
<g>
</g>
<g>
</g>
<g>
</g>
<g>
</g>
<g>
</g>
<g>
</g>
<g>
</g>
<g>
</g>
<g>
</g>
<g>
</g>
<g>
</g>
<g>
</g>
<g>
</g>
</svg>
